<?xml version="1.0" encoding="UTF-8" standalone="no"?>
<svg
   viewBox="0 0 900.91699 900.91699"
   version="1.1"
   id="svg1"
   sodipodi:docname="github-diamond.svg"
   width="900.91699"
   height="900.91699"
   inkscape:version="1.4.2 (f4327f4, 2025-05-13)"
   xmlns:inkscape="http://www.inkscape.org/namespaces/inkscape"
   xmlns:sodipodi="http://sodipodi.sourceforge.net/DTD/sodipodi-0.dtd"
   xmlns="http://www.w3.org/2000/svg"
   xmlns:svg="http://www.w3.org/2000/svg">
  <defs
     id="defs1">
    <inkscape:path-effect
       effect="powerclip"
       message=""
       id="path-effect2"
       is_visible="true"
       lpeversion="1"
       inverse="true"
       flatten="false"
       hide_clip="false" />
    <clipPath
       clipPathUnits="userSpaceOnUse"
       id="clipPath2">
      <path
         d="m 681.06578,159.62446 c 1.41422,1.41421 0.91924,4.17193 -1.13137,6.22254 -2.12132,2.54558 -4.87903,3.04055 -6.50538,1.41421 -1.41421,-1.41421 -0.91924,-4.17193 1.13137,-6.22254 1.90919,-2.33345 4.87904,-3.04056 6.50538,-1.41421 z m -25.173,18.80904 c 0.91924,1.90918 3.9598,2.12132 6.50539,0.42426 2.54558,-1.13137 3.95979,-3.9598 2.96984,-5.79828 -0.98995,-1.83847 -3.95979,-2.12132 -6.71751,-0.63639 -2.33345,1.3435 -3.67696,4.10122 -2.75772,6.01041 z m 30.05204,-32.45621 c -1.55563,2.54559 -1.62634,5.30331 0.21213,6.71752 1.62635,1.20208 4.38407,0.28284 6.01041,-2.33345 1.55564,-2.54559 1.62635,-5.3033 0,-6.50539 -1.55563,-1.13137 -4.38406,-0.14142 -6.22254,2.12132 z M 461.50913,-171.51365 c -98.07571,98.075711 -98.6414,247.558084 -0.56569,345.63379 78.41815,78.41815 194.87863,96.16653 288.99455,49.28535 10.67731,-7.42462 8.27314,-16.19275 3.67695,-20.78894 -4.38406,-4.38406 -28.77925,-28.35498 -43.62849,-43.20423 0,0 -38.89087,60.10408 -80.96372,38.82017 0,0 -28.63783,-12.51579 -45.53768,-6.22254 0,0 -27.29432,5.09117 -9.75807,-12.02082 0,0 19.02117,-16.19274 45.53767,-9.05097 42.77996,11.80869 60.8819,-21.99102 66.32662,-36.76955 C 675.90391,121.22856 672.65121,108.78348 673.07548,99.025404 629.16415,134.16861 583.55576,168.32187 515.53209,100.2982 496.08665,80.85276 491.70259,65.720675 490.57122,41.961887 484.13655,39.204171 459.17568,26.264117 444.39715,-7.8891409 454.57948,-27.263867 512.2794,-37.587626 512.2794,-37.587626 c 10.18233,-18.101933 23.33452,-35.355339 38.39589,-50.416713 15.06138,-15.061371 32.31478,-28.213561 50.41672,-38.395901 0,0 10.25305,-57.77062 29.69848,-67.88225 34.22397,14.84924 47.09331,39.7394 49.85103,46.17407 23.8295,1.20209 40.51722,4.03051 59.89195,23.40524 68.2358,68.235803 32.03193,115.3291149 -3.04056,159.311157 12.09152,-0.919239 28.21356,4.17193 44.83057,20.788939 23.82949,23.829499 53.10372,53.527984 58.90199,59.326254 4.5962,4.5962 13.43503,6.92965 20.78894,-3.67695 47.23473,-94.186624 28.07214,-209.232897 -50.346,-287.65104 -98.07571,-98.07571 -252.08357,-92.98454 -350.15928,5.09117 z M 601.0213,176.73644 c -0.21213,1.62635 1.62634,3.04056 4.17193,3.18198 2.26274,0 4.38406,-1.13137 4.38406,-2.96985 0.21213,-1.62634 -1.62635,-3.04056 -4.17193,-3.18198 -2.26274,0 -4.38406,1.13137 -4.38406,2.96985 z m -13.36432,1.90919 c 0.42426,1.41421 2.26274,1.83848 4.38406,1.13137 1.83848,-0.42427 3.04056,-2.05061 2.54559,-3.53554 -0.42427,-1.41421 -2.26275,-1.83847 -4.38407,-1.13137 -1.83847,0.98995 -2.75771,2.33346 -2.54558,3.53554 z m 48.08326,2.26274 c -0.21213,2.05061 2.33345,3.74767 5.3033,3.46482 3.25269,0 5.51543,-1.83847 5.3033,-3.88908 0,-1.83848 -2.54558,-3.53554 -5.3033,-3.46483 -3.18198,-0.0707 -5.51543,1.83848 -5.3033,3.88909 z m -18.45549,-2.33345 c -0.42426,1.83847 1.41422,3.67695 4.17193,4.17193 2.75772,0.49497 5.37401,-0.70711 5.58615,-2.33346 0.21213,-2.0506 -1.62635,-3.88908 -4.38407,-4.38406 -2.61629,-0.63639 -5.16187,0.49498 -5.37401,2.54559 z"
         id="path2"
         style="display:none" />
      <path
         id="lpe_path-effect2"
         class="powerclip"
         d="M 313.52228,-323.52228 H 960.56671 V 323.52228 H 313.52228 Z m 367.5435,483.14674 c -1.62634,-1.62635 -4.59619,-0.91924 -6.50538,1.41421 -2.05061,2.05061 -2.54558,4.80833 -1.13137,6.22254 1.62635,1.62634 4.38406,1.13137 6.50538,-1.41421 2.05061,-2.05061 2.54559,-4.80833 1.13137,-6.22254 z m -25.173,18.80904 c 0.91924,1.90918 3.9598,2.12132 6.50539,0.42426 2.54558,-1.13137 3.95979,-3.9598 2.96984,-5.79828 -0.98995,-1.83847 -3.95979,-2.12132 -6.71751,-0.63639 -2.33345,1.3435 -3.67696,4.10122 -2.75772,6.01041 z m 30.05204,-32.45621 c -1.55563,2.54559 -1.62634,5.30331 0.21213,6.71752 1.62635,1.20208 4.38407,0.28284 6.01041,-2.33345 1.55564,-2.54559 1.62635,-5.3033 0,-6.50539 -1.55563,-1.13137 -4.38406,-0.14142 -6.22254,2.12132 z M 461.50913,-171.51365 c -98.07571,98.075711 -98.6414,247.558084 -0.56569,345.63379 78.41815,78.41815 194.87863,96.16653 288.99455,49.28535 10.67731,-7.42462 8.27314,-16.19275 3.67695,-20.78894 -4.38406,-4.38406 -28.77925,-28.35498 -43.62849,-43.20423 0,0 -38.89087,60.10408 -80.96372,38.82017 0,0 -28.63783,-12.51579 -45.53768,-6.22254 0,0 -27.29432,5.09117 -9.75807,-12.02082 0,0 19.02117,-16.19274 45.53767,-9.05097 42.77996,11.80869 60.8819,-21.99102 66.32662,-36.76955 C 675.90391,121.22856 672.65121,108.78348 673.07548,99.025404 629.16415,134.16861 583.55576,168.32187 515.53209,100.2982 496.08665,80.85276 491.70259,65.720675 490.57122,41.961887 484.13655,39.204171 459.17568,26.264117 444.39715,-7.8891409 454.57948,-27.263867 512.2794,-37.587626 512.2794,-37.587626 c 10.18233,-18.101933 23.33452,-35.355339 38.39589,-50.416713 15.06138,-15.061371 32.31478,-28.213561 50.41672,-38.395901 0,0 10.25305,-57.77062 29.69848,-67.88225 34.22397,14.84924 47.09331,39.7394 49.85103,46.17407 23.8295,1.20209 40.51722,4.03051 59.89195,23.40524 68.2358,68.235803 32.03193,115.3291149 -3.04056,159.311157 12.09152,-0.919239 28.21356,4.17193 44.83057,20.788939 23.82949,23.829499 53.10372,53.527984 58.90199,59.326254 4.5962,4.5962 13.43503,6.92965 20.78894,-3.67695 47.23473,-94.186624 28.07214,-209.232897 -50.346,-287.65104 -98.07571,-98.07571 -252.08357,-92.98454 -350.15928,5.09117 z M 601.0213,176.73644 c -0.21213,1.62635 1.62634,3.04056 4.17193,3.18198 2.26274,0 4.38406,-1.13137 4.38406,-2.96985 0.21213,-1.62634 -1.62635,-3.04056 -4.17193,-3.18198 -2.26274,0 -4.38406,1.13137 -4.38406,2.96985 z m -13.36432,1.90919 c 0.42426,1.41421 2.26274,1.83848 4.38406,1.13137 1.83848,-0.42427 3.04056,-2.05061 2.54559,-3.53554 -0.42427,-1.41421 -2.26275,-1.83847 -4.38407,-1.13137 -1.83847,0.98995 -2.75771,2.33346 -2.54558,3.53554 z m 48.08326,2.26274 c -0.21213,2.05061 2.33345,3.74767 5.3033,3.46482 3.25269,0 5.51543,-1.83847 5.3033,-3.88908 0,-1.83848 -2.54558,-3.53554 -5.3033,-3.46483 -3.18198,-0.0707 -5.51543,1.83848 -5.3033,3.88909 z m -18.45549,-2.33345 c -0.42426,1.83847 1.41422,3.67695 4.17193,4.17193 2.75772,0.49497 5.37401,-0.70711 5.58615,-2.33346 0.21213,-2.0506 -1.62635,-3.88908 -4.38407,-4.38406 -2.61629,-0.63639 -5.16187,0.49498 -5.37401,2.54559 z" />
    </clipPath>
  </defs>
  <sodipodi:namedview
     id="namedview1"
     pagecolor="#ffffff"
     bordercolor="#000000"
     borderopacity="0.25"
     inkscape:showpageshadow="2"
     inkscape:pageopacity="0.0"
     inkscape:pagecheckerboard="0"
     inkscape:deskcolor="#d1d1d1"
     inkscape:zoom="0.63046875"
     inkscape:cx="374.32466"
     inkscape:cy="425.87361"
     inkscape:window-width="1920"
     inkscape:window-height="1009"
     inkscape:window-x="-8"
     inkscape:window-y="-8"
     inkscape:window-maximized="1"
     inkscape:current-layer="svg1" />
  <!--!Font Awesome Free 7.0.1 by @fontawesome - https://fontawesome.com License - https://fontawesome.com/license/free Copyright 2025 Fonticons, Inc.-->
  <path
     style="fill:#ffffff"
     id="rect1"
     width="637.04443"
     height="637.04456"
     x="318.52228"
     y="-318.52228"
     transform="rotate(45)"
     inkscape:export-filename="github-diamond.svg"
     inkscape:export-xdpi="96"
     inkscape:export-ydpi="96"
     clip-path="url(#clipPath2)"
     inkscape:path-effect="#path-effect2"
     sodipodi:type="rect"
     d="M 318.52228,-318.52228 H 955.56671 V 318.52228 H 318.52228 Z" />
</svg>
